<svg xmlns="http://www.w3.org/2000/svg" width="420" height="654">
  <rect width="420" height="654" rx="10" fill="#0d1117" />
  <defs>
    <clipPath id="claude-bar-clip">
      <rect x="20" y="70" width="380" height="22" rx="4" />
    </clipPath>
  </defs>
  <text x="20" y="30" font-size="15" font-family="Segoe UI, sans-serif"
        fill="#e6edf3" font-weight="bold">Claude Code — last 7 days</text>
  <text x="20" y="50" font-size="11" font-family="Segoe UI, sans-serif"
        fill="#8b949e">38h 00m active</text>
  <g clip-path="url(#claude-bar-clip)"><rect x="20.0" y="70" width="378.0" height="22" fill="#d9551a" /><rect x="400.0" y="70" width="0.0" height="22" fill="#999999" /></g>
  <circle cx="131.3" cy="100" r="4" fill="#d9551a" /><text x="141.3" y="104" font-size="11" font-family="Segoe UI, sans-serif" fill="#e6edf3">Opus 100%</text><circle cx="225.1" cy="100" r="4" fill="#999999" /><text x="235.1" y="104" font-size="11" font-family="Segoe UI, sans-serif" fill="#e6edf3">Other 0%</text><line x1="20" y1="128.0" x2="400" y2="128.0" stroke="#21262d" stroke-width="1" /><g font-family="Segoe UI, sans-serif">
    <rect x="20" y="156" width="16" height="16" rx="3" fill="none" stroke="#e6edf3" stroke-width="1.6" />
    <text x="28" y="168" font-size="10" font-weight="bold" fill="#e6edf3" text-anchor="middle">::</text>
    <text x="44" y="169" font-size="15" font-weight="bold" fill="#e6edf3">Code::Stats</text>
    <text x="20" y="188" font-size="11" fill="#8b949e">2 076 425 XP &#183; Lvl. 36 &#183; since 2019</text>
  </g>
  <circle cx="100" cy="273" r="55" fill="none" stroke="#d9551a" stroke-width="24" stroke-linecap="butt" stroke-dasharray="215.43 130.14" stroke-dashoffset="-0.00" transform="rotate(-90 100 273)" /><circle cx="100" cy="273" r="55" fill="none" stroke="#2b78dd" stroke-width="24" stroke-linecap="butt" stroke-dasharray="32.37 313.20" stroke-dashoffset="-216.49" transform="rotate(-90 100 273)" /><circle cx="100" cy="273" r="55" fill="none" stroke="#12a869" stroke-width="24" stroke-linecap="butt" stroke-dasharray="18.98 326.59" stroke-dashoffset="-249.92" transform="rotate(-90 100 273)" /><circle cx="100" cy="273" r="55" fill="none" stroke="#9c52d6" stroke-width="24" stroke-linecap="butt" stroke-dasharray="18.83 326.74" stroke-dashoffset="-269.96" transform="rotate(-90 100 273)" /><circle cx="100" cy="273" r="55" fill="none" stroke="#bc890f" stroke-width="24" stroke-linecap="butt" stroke-dasharray="14.39 331.19" stroke-dashoffset="-289.85" transform="rotate(-90 100 273)" /><circle cx="100" cy="273" r="55" fill="none" stroke="#4b5563" stroke-width="24" stroke-linecap="butt" stroke-dasharray="39.23 306.35" stroke-dashoffset="-305.29" transform="rotate(-90 100 273)" />
  <circle cx="240" cy="228" r="4" fill="#d9551a" /><text x="250" y="232" font-size="11" font-family="Segoe UI, sans-serif" fill="#e6edf3">JavaScript (JSX) 63%</text><circle cx="240" cy="246" r="4" fill="#2b78dd" /><text x="250" y="250" font-size="11" font-family="Segoe UI, sans-serif" fill="#e6edf3">Markdown 10%</text><circle cx="240" cy="264" r="4" fill="#12a869" /><text x="250" y="268" font-size="11" font-family="Segoe UI, sans-serif" fill="#e6edf3">Svelte 6%</text><circle cx="240" cy="282" r="4" fill="#9c52d6" /><text x="250" y="286" font-size="11" font-family="Segoe UI, sans-serif" fill="#e6edf3">TypeScript (JSX) 6%</text><circle cx="240" cy="300" r="4" fill="#bc890f" /><text x="250" y="304" font-size="11" font-family="Segoe UI, sans-serif" fill="#e6edf3">TypeScript 4%</text><circle cx="240" cy="318" r="4" fill="#4b5563" /><text x="250" y="322" font-size="11" font-family="Segoe UI, sans-serif" fill="#e6edf3">Other 12%</text><line x1="20" y1="368.0" x2="400" y2="368.0" stroke="#21262d" stroke-width="1" /><defs>
    <clipPath id="wk-bar-clip-376"><rect x="20" y="580.0" width="380" height="18" rx="3" /></clipPath>
  </defs>
  <g font-family="Segoe UI, sans-serif">
    <rect x="20" y="396" width="16" height="16" rx="8" fill="none" stroke="#e6edf3" stroke-width="1.6" /><line x1="28" y1="404" x2="28" y2="400" stroke="#e6edf3" stroke-width="1.4" stroke-linecap="round" /><line x1="28" y1="404" x2="31" y2="404" stroke="#e6edf3" stroke-width="1.4" stroke-linecap="round" />
    <text x="44" y="409" font-size="15" font-weight="bold" fill="#e6edf3">WakaTime</text>
    <text x="20" y="428" font-size="11" fill="#8b949e">Last 7 days activity</text>
  </g>
  <circle cx="90" cy="501" r="45" fill="none" stroke="#d9551a" stroke-width="20" stroke-linecap="butt" stroke-dasharray="87.62 195.12" stroke-dashoffset="-0.00" transform="rotate(-90 90 501)" /><circle cx="90" cy="501" r="45" fill="none" stroke="#2b78dd" stroke-width="20" stroke-linecap="butt" stroke-dasharray="46.53 236.21" stroke-dashoffset="-88.49" transform="rotate(-90 90 501)" /><circle cx="90" cy="501" r="45" fill="none" stroke="#12a869" stroke-width="20" stroke-linecap="butt" stroke-dasharray="27.19 255.55" stroke-dashoffset="-135.89" transform="rotate(-90 90 501)" /><circle cx="90" cy="501" r="45" fill="none" stroke="#9c52d6" stroke-width="20" stroke-linecap="butt" stroke-dasharray="18.79 263.95" stroke-dashoffset="-163.94" transform="rotate(-90 90 501)" /><circle cx="90" cy="501" r="45" fill="none" stroke="#bc890f" stroke-width="20" stroke-linecap="butt" stroke-dasharray="18.00 264.74" stroke-dashoffset="-183.59" transform="rotate(-90 90 501)" /><circle cx="90" cy="501" r="45" fill="none" stroke="#4b5563" stroke-width="20" stroke-linecap="butt" stroke-dasharray="79.42 203.32" stroke-dashoffset="-202.46" transform="rotate(-90 90 501)" />
  <circle cx="200" cy="456" r="4" fill="#d9551a" /><text x="210" y="460" font-size="11" font-family="Segoe UI, sans-serif" fill="#e6edf3">Markdown 31%</text><circle cx="200" cy="474" r="4" fill="#2b78dd" /><text x="210" y="478" font-size="11" font-family="Segoe UI, sans-serif" fill="#e6edf3">TypeScript 17%</text><circle cx="200" cy="492" r="4" fill="#12a869" /><text x="210" y="496" font-size="11" font-family="Segoe UI, sans-serif" fill="#e6edf3">YAML 10%</text><circle cx="200" cy="510" r="4" fill="#9c52d6" /><text x="210" y="514" font-size="11" font-family="Segoe UI, sans-serif" fill="#e6edf3">Bash 7%</text><circle cx="200" cy="528" r="4" fill="#bc890f" /><text x="210" y="532" font-size="11" font-family="Segoe UI, sans-serif" fill="#e6edf3">JavaScript 7%</text><circle cx="200" cy="546" r="4" fill="#4b5563" /><text x="210" y="550" font-size="11" font-family="Segoe UI, sans-serif" fill="#e6edf3">Other 28%</text>
  <g clip-path="url(#wk-bar-clip-376)"><rect x="20.0" y="580.0" width="367.7" height="18" fill="#d9551a" /><rect x="389.7" y="580.0" width="6.4" height="18" fill="#2b78dd" /><rect x="398.1" y="580.0" width="1.9" height="18" fill="#12a869" /></g>
  <circle cx="101.6" cy="616.0" r="4" fill="#d9551a" /><text x="111.6" y="620.0" font-size="11" font-family="Segoe UI, sans-serif" fill="#e6edf3">AI Coding 97%</text><circle cx="248.6" cy="616.0" r="4" fill="#2b78dd" /><text x="258.6" y="620.0" font-size="11" font-family="Segoe UI, sans-serif" fill="#e6edf3">Coding 2%</text><circle cx="101.6" cy="634.0" r="4" fill="#12a869" /><text x="111.6" y="638.0" font-size="11" font-family="Segoe UI, sans-serif" fill="#e6edf3">Writing Docs 0%</text>
</svg>